<svg width="39" height="35" viewBox="0 0 39 35" fill="none" xmlns="http://www.w3.org/2000/svg">
<path d="M30.5882 34.0236C30.1467 34.0236 29.6672 33.8371 29.1557 33.4657C26.769 31.7331 24.3833 29.9994 21.9987 28.2643L21.4838 27.8899C20.6997 27.3199 20.6389 27.3225 19.857 27.9684C18.4378 29.1413 17.1702 30.1759 15.9814 31.1313C15.7103 31.3493 14.8851 32.0126 14.0136 31.7464C13.1447 31.4813 12.833 30.4795 12.7314 30.1503C12.4913 29.3783 12.2506 28.6065 12.0094 27.835C11.2933 25.5409 10.5526 23.1689 9.84663 20.8272C9.76322 20.55 9.68451 20.4844 9.45714 20.4022C7.69338 19.7646 5.90689 19.1026 4.17919 18.4625C3.56135 18.234 2.94385 18.0055 2.32669 17.777C1.87423 17.6099 1.19071 17.3571 0.731523 16.714C0.639425 16.5849 0.589899 16.4302 0.589844 16.2716C0.589844 15.1692 1.02453 14.5323 2.0432 14.1404C14.0117 9.53874 24.805 5.38699 35.6956 1.17849C37.1428 0.618758 37.9181 1.32678 38.3131 2.01943C38.3785 2.13437 38.413 2.26435 38.413 2.39661C38.413 2.81124 32.3399 31.964 32.2786 32.2588C32.095 33.1392 31.7073 33.6993 31.1273 33.9236C30.9554 33.9902 30.7726 34.0241 30.5882 34.0236ZM20.6849 25.9457C21.2022 25.9457 21.7288 26.1846 22.3797 26.6579L22.8946 27.0322C25.2796 28.7664 27.6649 30.5 30.0507 32.2329C30.3635 32.46 30.5278 32.4935 30.5755 32.4982C30.6079 32.4627 30.7071 32.3272 30.786 31.9483C32.6581 22.9657 36.3696 5.02721 36.846 2.5666C36.7429 2.47088 36.5953 2.46377 36.2437 2.59961C25.3521 6.80836 14.558 10.9601 2.58847 15.5615C2.26423 15.6861 2.15772 15.7582 2.12522 15.9914C2.34767 16.1475 2.59339 16.2675 2.85329 16.3469C3.47113 16.5754 4.08897 16.8041 4.70681 17.033C6.43159 17.6721 8.21528 18.3329 9.97333 18.9684C10.2967 19.0734 10.5883 19.2585 10.8209 19.5065C11.0535 19.7544 11.2196 20.0572 11.3037 20.3866C12.0072 22.7212 12.7469 25.0895 13.4619 27.38C13.7031 28.1521 13.944 28.9244 14.1845 29.6969C14.3084 30.0958 14.4186 30.2386 14.4596 30.2809C14.5181 30.2682 14.6927 30.2109 15.0264 29.9426C16.2095 28.9916 17.4719 27.9613 18.8858 26.7928C19.5733 26.2266 20.1237 25.9457 20.6849 25.9457ZM14.5403 27.4087H14.5198C13.6198 27.3966 13.3955 26.6099 13.3111 26.3137C13.1073 25.5994 12.901 24.8857 12.6922 24.1728C12.3322 22.936 11.96 21.6571 11.6139 20.3906C11.3909 19.5741 11.4153 18.4216 12.798 17.5666C17.4502 14.6894 28.9523 7.61591 29.1017 7.53644C29.19 7.48953 29.2866 7.46042 29.3861 7.45074C29.9863 7.39323 30.3538 7.71392 30.4989 8.03358C30.5886 8.25732 30.6064 8.50345 30.5499 8.73779C30.4933 8.97213 30.3652 9.18303 30.1833 9.3412C29.4631 10.0198 20.6804 18.192 17.0223 21.571C16.4542 22.0958 16.1763 22.6513 16.1209 23.3721C16.0574 24.2 15.9305 25.0225 15.8059 25.8167L15.7482 26.1913C15.6037 27.1939 15.0164 27.4087 14.5407 27.4087H14.5403ZM25.7884 11.354C22.1399 13.5962 16.8661 16.8418 13.5995 18.8621C13.0071 19.2284 12.9612 19.5407 13.0837 19.9889C13.4265 21.2433 13.7968 22.516 14.1549 23.7467L14.4342 24.7076C14.5043 24.2225 14.566 23.7345 14.6024 23.2555C14.6755 22.1741 15.1739 21.1657 15.9886 20.4509C18.3145 18.3031 22.7116 14.2173 25.7886 11.354H25.7884Z" fill="#808080"/>
</svg>
