<svg width="59" height="59" viewBox="0 0 59 59" fill="none" xmlns="http://www.w3.org/2000/svg">
<path d="M50.3203 58.1914H8.67969C4.38981 58.1914 0.808594 54.6102 0.808594 50.3203V44.7344H2.33203V50.3203C2.33203 53.7795 5.2206 56.668 8.67969 56.668H50.3203C53.7802 56.668 56.668 53.7802 56.668 50.3203V8.67969C56.668 5.21907 53.7808 2.33203 50.3203 2.33203H43.7188V0.808594H50.3203C54.6102 0.808594 58.1914 4.38981 58.1914 8.67969V50.3203C58.1914 54.6102 54.6102 58.1914 50.3203 58.1914ZM2.33203 43.7188H0.808594V42.1953H2.33203V43.7188ZM2.33203 41.1797H0.808594V8.67969C0.808594 4.38981 4.38981 0.808594 8.67969 0.808594H42.7031V2.33203H8.67969C5.21983 2.33203 2.33203 5.21971 2.33203 8.67969V41.1797Z" fill="#808080"/>
</svg>
