<?xml version="1.0" encoding="UTF-8" standalone="no"?>
<svg
   width="230.00002"
   height="150.00002"
   viewBox="0 0 230.00002 150.00002"
   fill="none"
   version="1.1"
   id="svg7"
   sodipodi:docname="fm-interiors-logo.svg"
   inkscape:export-filename="..\..\..\FM Interiors [design]\favicon\fm-interiors-logo.png"
   inkscape:export-xdpi="96"
   inkscape:export-ydpi="96"
   inkscape:version="1.3 (0e150ed6c4, 2023-07-21)"
   xmlns:inkscape="http://www.inkscape.org/namespaces/inkscape"
   xmlns:sodipodi="http://sodipodi.sourceforge.net/DTD/sodipodi-0.dtd"
   xmlns="http://www.w3.org/2000/svg"
   xmlns:svg="http://www.w3.org/2000/svg">
  <sodipodi:namedview
     id="namedview1"
     pagecolor="#ffffff"
     bordercolor="#000000"
     borderopacity="0.25"
     inkscape:showpageshadow="2"
     inkscape:pageopacity="0.0"
     inkscape:pagecheckerboard="0"
     inkscape:deskcolor="#d1d1d1"
     inkscape:zoom="5.4733328"
     inkscape:cx="115.01219"
     inkscape:cy="75.000008"
     inkscape:window-width="1920"
     inkscape:window-height="1017"
     inkscape:window-x="-8"
     inkscape:window-y="32"
     inkscape:window-maximized="1"
     inkscape:current-layer="svg7" />
  <g
     clip-path="url(#clip0_76105_2)"
     id="g7"
     transform="matrix(0.98712601,0,0,0.95541401,-1.1659653e-6,8.2788086e-8)">
    <path
       d="m 112.22,94.8867 c -0.864,2.0507 -3.022,6.9433 -3.022,6.9433 0,0 -2.203,5.443 -2.482,8.311 -0.742,7.614 -0.316,5.924 2.734,-0.648 l 3.525,-8.886 c 0,0 1.799,-4.3532 1.619,-5.5404 0.062,-1.7431 -1.048,-3.3299 -2.374,-0.1799 z"
       fill="#000000"
       id="path1" />
    <path
       d="m 118.691,81.8357 c 0.563,-0.8956 1.292,-1.7097 1.471,-2.1785 0.429,-1.1236 -0.497,-0.9878 -1.395,-0.4672 -1.272,0.7377 -2.958,2.0042 -3.968,3.5106 -0.66,0.9851 -0.805,1.681 -0.799,2.0099 0.02,1.0015 0.905,1.6963 1.613,2.1368 1.774,1.1025 1.212,-2.0407 3.078,-5.0116 z"
       fill="#000000"
       id="path2" />
    <path
       d="m 172.846,137.701 c 0,0 11.29,-8.821 16.835,-11.213 4.702,-2.027 18.675,-10.055 21.473,-11.174 2.799,-1.119 12.465,-7.072 12.465,-7.072 0,0 8.953,-4.986 9.36,-3.613 0.407,1.374 -5.341,4.579 -5.341,4.579 0,0 -2.697,1.476 -4.884,2.392 -2.188,0.916 -12.414,6.716 -13.787,7.479 -1.374,0.763 -14.397,8.344 -14.397,8.344 0,0 -7.275,3.46 -9.819,5.19 -2.544,1.73 -7.733,5.088 -8.649,5.393 -0.915,0.305 -3.307,0.916 -3.154,0.203 0.153,-0.712 -0.102,-0.508 -0.102,-0.508 z"
       fill="#000000"
       id="path3" />
    <path
       d="m 111.279,78.6632 c -2.034,-0.013 -4.527,0.1399 -6.359,0.8014 -3.663,1.3228 -8.4194,4.5409 -11.8789,7.7971 -1.5921,1.4987 -8.4057,7.8159 -10.7089,12.9233 -1.0591,2.349 -1.5597,4.373 -2.9507,4.083 -1.1595,-0.242 -0.6125,-2.374 -0.4325,-4.032 0.242,-2.2286 0.3308,-3.3396 0.2544,-4.7955 -0.2293,-4.9041 -1.9867,-8.4714 -6.0286,-8.5222 -2.7662,-0.0345 -6.0099,2.4903 -7.8981,4.9989 -2.4709,3.2825 -4.1489,6.7442 -5.7106,11.4348 0,0 -3.0779,7.556 2.3147,9.998 5.3926,2.442 10.0731,-6.716 10.0731,-6.716 1.4244,-2.748 1.8823,-0.712 1.8823,-0.712 l 0.2543,1.933 c 0,0 0.9158,3.053 3.1542,3.561 2.2385,0.509 3.663,-0.814 5.3927,-2.645 1.7297,-1.832 2.5437,1.017 4.2734,2.951 2.4981,2.792 4.1048,-5.193 8.3942,-11.7533 0.5717,-0.8744 4.5669,-6.5059 5.672,-7.7081 4.99,-5.4253 13.914,-13.4066 13.914,-13.4066 0,0 -1.577,-0.178 -3.612,-0.1908 z M 73.7854,91.3575 c 0.7518,-0.0573 1.2525,0.3072 1.4117,0.5469 0.9253,1.2834 0.9181,1.7132 1.2973,3.4979 0.4672,2.1989 -0.5136,3.3765 -1.1192,2.0861 -1.1701,-2.4931 -3.534,0.3658 -5.5453,3.4086 -1.9841,3.002 -3.5103,5.673 -4.0699,6.691 -0.5596,1.017 -2.4419,2.06 -0.7122,-3.943 1.1055,-3.359 5.9445,-10.7659 7.9109,-12.0713 0.3057,-0.1339 0.5761,-0.1972 0.8267,-0.2162 z m 3.1033,8.2296 c 0.4738,-0.026 0.7996,0.2751 0.407,1.0299 -0.6614,1.272 -0.814,1.298 -1.3228,1.908 -0.5087,0.611 -1.8823,0.433 -1.3227,-0.585 0.3021,-0.694 0.6615,-1.28 1.2464,-1.882 0.2718,-0.2798 0.6679,-0.4528 0.9921,-0.4709 z"
       fill="#000000"
       id="path4" />
    <path
       d="m 104.882,0.504764 c 1.891,-0.738933 4.686,-1.024796 -0.201,1.722976 C 102.841,3.26212 68.5789,21.3528 66.2046,22.7918 63.8304,24.2309 46.4244,34.194 46.4244,34.194 c 0,0 -31.1616,22.3528 -33.2481,24.3675 -2.0864,2.0147 -10.89879,9.6825 -4.7433,11.897 4.9882,1.7947 9.0689,2.4824 16.4794,2.7702 7.4105,0.2878 17.6269,1.619 20.8645,2.7702 3.2376,1.1513 11.3342,3.8768 8.6002,11.5759 -2.734,7.699 -10.9032,17.2072 -14.4644,20.9722 -3.5612,3.765 -8.6486,8.751 -13.6342,11.651 -1.9911,1.158 -6.6546,2.396 -7.8346,-1.399 -2.0095,-6.462 0.2631,-11.886 1.7893,-16.516 1.5262,-4.6298 2.6537,-8.1759 4.9393,-13.0891 2.7713,-5.9575 6.1934,-18.2972 6.1934,-18.2972 l 8.3433,-24.7271 c 0,0 3.4873,-16.8788 4.3679,-19.4892 l 1.6671,-4.942 c 0,0 3.4805,-13.71916 3.7513,-9.6566 0.3052,4.5791 -2.1552,16.1784 -2.1552,16.1784 l -4.1717,16.4848 -7.2241,22.0814 -5.0874,16.79 -6.9188,19.7406 -2.5437,8.039 c 0,0 -4.7822,12.415 5.1891,3.969 9.9713,-8.446 14.3465,-13.025 14.3465,-13.025 0,0 2.8204,-3.0312 5.5452,-7.3268 C 51.4508,87.1698 53.4452,81.9883 47.849,80.1566 42.2529,78.325 35.0288,78.1215 25.3627,77.918 15.6967,77.7144 11.4233,77.3074 7.76036,75.1705 4.09743,73.0336 -4.23063,68.0774 2.62209,60.1104 10.7619,50.6469 24.751,40.7643 38.1505,32.7549 50.9752,25.0891 73.5483,14.3348 73.5483,14.3348 c 0,0 15.2183,-7.53315 31.3337,-13.830036 z"
       fill="#000000"
       id="path5" />
    <path
       d="m 144.281,93.4105 c 0.514,7.5715 -6.053,14.0325 -6.053,14.0325 0,0 -3.902,5.609 1.062,3.235 7.221,-3.454 17.862,-7.799 19.566,-8.338 3.052,-0.967 8.547,-1.17 8.547,-1.17 0,0 1.146,1.168 -1.272,2.035 -6.419,2.299 -13.482,7.217 -24.267,12.007 -1.188,0.528 -5.596,2.849 -7.478,2.035 -1.883,-0.814 -2.646,-1.17 -3.155,0.356 -0.508,1.527 -2.543,-3.866 -2.543,-3.866 0,0 -1.476,-1.323 1.119,-4.02 2.595,-2.696 4.935,-5.596 7.122,-8.954 1.221,-1.8747 2.952,-6.4208 0.662,-6.5638 -3.178,-0.1985 -15.11,3.5079 -15.212,7.9368 -0.067,2.95 -2.085,1.12 -1.984,0.713 0.102,-0.407 -1.322,-2.239 0.204,-4.5795 1.526,-2.3404 5.279,-5.3575 12.082,-7.9625 6.021,-2.3054 11.264,-1.8244 11.6,3.1035 z"
       fill="#000000"
       id="path6" />
    <path
       d="m 215.569,42.5685 c -0.473,0.0977 -1.144,0.8303 -2.111,2.6965 -3.094,5.9722 -11.652,21.1563 -12.731,23.099 -1.08,1.9428 -4.75,7.4779 -5.469,9.1328 -0.72,1.6549 -4.092,9.3624 -4.452,9.7942 -0.359,0.4317 -5.973,10.2802 -3.167,-0.3689 2.806,-10.6491 6.186,-21.2183 6.474,-22.2977 0.288,-1.0792 2.653,-10.7896 2.149,-12.7324 -0.503,-1.9427 -1.933,-4.0295 -4.235,-2.5185 -2.302,1.5111 -4.83,4.6763 -5.838,6.9068 -1.007,2.2306 -5.252,9.4249 -2.518,1.8698 2.734,-7.5551 4.464,-10.8717 4.464,-11.2315 0,-0.3597 1.581,-6.756 -1.297,-0.496 -2.878,6.2599 -6.9,15.9645 -8.483,19.1304 -1.583,3.166 -12.3,23.6784 -12.948,25.2614 -0.647,1.5829 -3.025,6.5525 -1.946,7.6318 1.08,1.0793 1.944,1.7188 0.649,2.5818 -1.295,0.864 -3.777,4.032 -4.897,6.169 -1.119,2.137 -6.41,16.994 -7.02,18.52 -0.611,1.527 -5.902,15.162 -6.41,22.183 -0.509,7.022 0.915,13.229 5.392,5.597 4.477,-7.632 11.294,-30.832 11.294,-30.832 0,0 4.07,-15.061 4.172,-15.976 0.102,-0.916 -0.712,-2.646 0.203,-3.562 0.916,-0.916 2.137,-1.73 1.018,-2.544 -1.12,-0.814 -2.137,-1.4245 -0.306,-2.4421 1.832,-1.0176 4.172,-7.0213 5.189,-9.9722 1.018,-2.951 5.088,-11.6004 7.733,-16.0778 2.646,-4.4773 8.242,-14.7548 8.852,-15.2636 0.61,-0.5088 5.409,-6.815 2.849,0.8649 -2.594,7.7845 -6.003,20.7586 -7.733,26.6605 -1.729,5.902 -4.171,14.704 -2.035,16.6373 2.137,1.934 4.579,3.969 8.14,-2.6456 3.561,-6.6142 7.123,-13.839 7.428,-15.1619 0.305,-1.3228 3.765,-8.0388 2.442,-0.2035 -1.323,7.8353 -3.867,20.657 -4.375,23.506 -0.509,2.849 -0.916,12.516 1.526,6.411 2.442,-6.106 1.628,-2.748 1.628,-2.748 0,0 7.122,-28.6954 8.343,-32.4604 1.221,-3.765 8.509,-25.5129 8.725,-26.3043 0.216,-0.7915 0.788,-4.4622 0.572,-5.4695 -0.148,-0.6926 -0.23,-3.5604 -1.271,-3.3453 z m -10.251,23.7859 c 0.316,-0.0626 0.446,0.3198 0.203,1.3991 -0.647,2.8781 -1.218,5.7554 -1.793,4.3883 -0.576,-1.3671 -0.532,-2.4983 -0.166,-3.4125 0.598,-1.4958 1.229,-2.2703 1.756,-2.3749 z m -41.055,37.1416 c 0.534,0.029 0.534,1.564 -0.725,6.143 -3.358,12.211 -8.344,25.847 -8.751,27.882 -0.407,2.035 -2.95,8.446 -3.357,9.667 -0.407,1.221 -4.782,7.937 -2.035,-3.968 2.747,-11.906 6.308,-20.657 6.308,-20.657 0,0 3.968,-12.008 4.782,-13.839 0.509,-1.145 2.886,-5.276 3.778,-5.228 z"
       fill="#000000"
       id="path7" />
  </g>
  <defs
     id="defs7">
    <clipPath
       id="clip0_76105_2">
      <rect
         width="233"
         height="157"
         fill="#ffffff"
         id="rect7"
         x="0"
         y="0" />
    </clipPath>
  </defs>
</svg>
