<svg xmlns="http://www.w3.org/2000/svg" width="230" height="150" fill="none"><g fill="#000" clip-path="url(#a)" transform="matrix(.98713 0 0 .95541 0 0)"><path d="M112.22 94.887c-.864 2.05-3.022 6.943-3.022 6.943s-2.203 5.443-2.482 8.311c-.742 7.614-.316 5.924 2.734-.648l3.525-8.886s1.799-4.353 1.619-5.54c.062-1.743-1.048-3.33-2.374-.18zM118.691 81.836c.563-.896 1.292-1.71 1.471-2.179.429-1.123-.497-.988-1.395-.467-1.272.738-2.958 2.004-3.968 3.51-.66.986-.805 1.682-.799 2.01.02 1.002.905 1.697 1.613 2.137 1.774 1.103 1.212-2.04 3.078-5.011zM172.846 137.701s11.29-8.821 16.835-11.213c4.702-2.027 18.675-10.055 21.473-11.174 2.799-1.119 12.465-7.072 12.465-7.072s8.953-4.986 9.36-3.613c.407 1.374-5.341 4.579-5.341 4.579s-2.697 1.476-4.884 2.392c-2.188.916-12.414 6.716-13.787 7.479-1.374.763-14.397 8.344-14.397 8.344s-7.275 3.46-9.819 5.19c-2.544 1.73-7.733 5.088-8.649 5.393-.915.305-3.307.916-3.154.203.153-.712-.102-.508-.102-.508zM111.279 78.663c-2.034-.013-4.527.14-6.359.802-3.663 1.322-8.42 4.54-11.879 7.797-1.592 1.498-8.406 7.816-10.709 12.923-1.059 2.349-1.56 4.373-2.95 4.083-1.16-.242-.613-2.374-.433-4.032.242-2.229.33-3.34.254-4.795-.229-4.905-1.986-8.472-6.028-8.523-2.766-.034-6.01 2.49-7.898 5-2.471 3.282-4.15 6.743-5.71 11.434 0 0-3.079 7.556 2.314 9.998 5.392 2.442 10.073-6.716 10.073-6.716 1.424-2.748 1.882-.712 1.882-.712l.255 1.933s.915 3.053 3.154 3.561c2.238.509 3.663-.814 5.392-2.645 1.73-1.832 2.544 1.017 4.274 2.951 2.498 2.792 4.105-5.193 8.394-11.753.572-.875 4.567-6.506 5.672-7.708 4.99-5.426 13.914-13.407 13.914-13.407s-1.577-.178-3.612-.19zM73.785 91.358c.752-.058 1.253.307 1.412.546.925 1.284.918 1.714 1.297 3.498.468 2.2-.513 3.377-1.119 2.086-1.17-2.493-3.534.366-5.545 3.409a103.979 103.979 0 0 0-4.07 6.691c-.56 1.017-2.442 2.06-.712-3.943 1.105-3.359 5.944-10.766 7.91-12.071.306-.134.577-.197.827-.216zm3.104 8.23c.474-.027.8.274.407 1.029-.662 1.272-.814 1.298-1.323 1.908-.509.611-1.882.433-1.323-.585a5.976 5.976 0 0 1 1.247-1.882c.271-.28.667-.453.992-.47zM104.882.505c1.891-.74 4.686-1.025-.201 1.723-1.84 1.034-36.102 19.125-38.476 20.564-2.375 1.439-19.78 11.402-19.78 11.402S15.262 56.547 13.175 58.561C11.09 60.577 2.278 68.245 8.433 70.46c4.988 1.794 9.069 2.482 16.48 2.77 7.41.288 17.626 1.619 20.864 2.77 3.237 1.151 11.334 3.877 8.6 11.576-2.734 7.699-10.903 17.207-14.464 20.972-3.561 3.765-8.649 8.751-13.634 11.651-1.992 1.158-6.655 2.396-7.835-1.399-2.01-6.462.263-11.886 1.79-16.516 1.525-4.63 2.653-8.176 4.938-13.09 2.772-5.957 6.194-18.296 6.194-18.296l8.343-24.727s3.487-16.88 4.368-19.49l1.667-4.942s3.48-13.719 3.751-9.656c.306 4.579-2.155 16.178-2.155 16.178L43.17 44.745l-7.225 22.081-5.087 16.79-6.919 19.741-2.543 8.039s-4.783 12.415 5.189 3.969c9.971-8.446 14.346-13.025 14.346-13.025s2.82-3.031 5.545-7.327c4.976-7.843 6.97-13.025 1.374-14.856-5.596-1.832-12.82-2.035-22.486-2.239-9.666-.204-13.94-.61-17.603-2.748-3.663-2.136-11.99-7.093-5.138-15.06 8.14-9.463 22.129-19.346 35.529-27.355 12.824-7.666 35.397-18.42 35.397-18.42S88.767 6.802 104.882.505zM144.281 93.41c.514 7.572-6.053 14.033-6.053 14.033s-3.902 5.609 1.062 3.235c7.221-3.454 17.862-7.799 19.566-8.338 3.052-.967 8.547-1.17 8.547-1.17s1.146 1.168-1.272 2.035c-6.419 2.299-13.482 7.217-24.267 12.007-1.188.528-5.596 2.849-7.478 2.035-1.883-.814-2.646-1.17-3.155.356-.508 1.527-2.543-3.866-2.543-3.866s-1.476-1.323 1.119-4.02a59.775 59.775 0 0 0 7.122-8.954c1.221-1.875 2.952-6.42.662-6.564-3.178-.198-15.11 3.508-15.212 7.937-.067 2.95-2.085 1.12-1.984.713.102-.407-1.322-2.239.204-4.58 1.526-2.34 5.279-5.357 12.082-7.962 6.021-2.305 11.264-1.824 11.6 3.103z"/><path d="M215.569 42.569c-.473.097-1.144.83-2.111 2.696-3.094 5.972-11.652 21.156-12.731 23.099-1.08 1.943-4.75 7.478-5.469 9.133-.72 1.655-4.092 9.362-4.452 9.794-.359.432-5.973 10.28-3.167-.369s6.186-21.218 6.474-22.298c.288-1.079 2.653-10.79 2.149-12.732-.503-1.943-1.933-4.03-4.235-2.518-2.302 1.51-4.83 4.676-5.838 6.906-1.007 2.23-5.252 9.425-2.518 1.87 2.734-7.555 4.464-10.872 4.464-11.231 0-.36 1.581-6.756-1.297-.496s-6.9 15.964-8.483 19.13c-1.583 3.166-12.3 23.678-12.948 25.261-.647 1.583-3.025 6.553-1.946 7.632 1.08 1.08 1.944 1.719.649 2.582-1.295.864-3.777 4.032-4.897 6.169-1.119 2.137-6.41 16.994-7.02 18.52-.611 1.527-5.902 15.162-6.41 22.183-.509 7.022.915 13.229 5.392 5.597 4.477-7.632 11.294-30.832 11.294-30.832s4.07-15.061 4.172-15.976c.102-.916-.712-2.646.203-3.562.916-.916 2.137-1.73 1.018-2.544-1.12-.814-2.137-1.425-.306-2.442 1.832-1.018 4.172-7.021 5.189-9.972 1.018-2.951 5.088-11.6 7.733-16.078 2.646-4.477 8.242-14.755 8.852-15.264.61-.508 5.409-6.815 2.849.865-2.594 7.785-6.003 20.759-7.733 26.66-1.729 5.903-4.171 14.705-2.035 16.638 2.137 1.934 4.579 3.969 8.14-2.646 3.561-6.614 7.123-13.839 7.428-15.162.305-1.322 3.765-8.038 2.442-.203s-3.867 20.657-4.375 23.506c-.509 2.849-.916 12.516 1.526 6.411 2.442-6.106 1.628-2.748 1.628-2.748s7.122-28.695 8.343-32.46c1.221-3.765 8.509-25.513 8.725-26.305.216-.791.788-4.462.572-5.47-.148-.692-.23-3.56-1.271-3.345zm-10.251 23.785c.316-.062.446.32.203 1.4-.647 2.878-1.218 5.755-1.793 4.388-.576-1.367-.532-2.498-.166-3.413.598-1.495 1.229-2.27 1.756-2.375zm-41.055 37.142c.534.029.534 1.564-.725 6.143-3.358 12.211-8.344 25.847-8.751 27.882-.407 2.035-2.95 8.446-3.357 9.667-.407 1.221-4.782 7.937-2.035-3.968 2.747-11.906 6.308-20.657 6.308-20.657s3.968-12.008 4.782-13.839c.509-1.145 2.886-5.276 3.778-5.228z"/></g><defs><clipPath id="a"><path fill="#fff" d="M0 0h233v157H0z"/></clipPath></defs></svg>