<svg xmlns="http://www.w3.org/2000/svg" version="1.1" width="512" height="512" x="0" y="0" viewBox="0 0 64 64" style="" xml:space="preserve"><g transform="matrix(1,0,0,-1,0,64.35504531860352)"><path d="M51 26.4 33.4 44l-.9.9-16.1-16.1-2.6-2.6c-2-2-5.3 1.1-3.2 3.2l17.7 17.7 2.6 2.6s2.4.9 3.2 0l17.6-17.6 2.5-2.5c2.1-2-1.2-5.2-3.2-3.2z" fill="#6f6f6f" opacity="1" data-original="#000000"/><path d="m28.4 35.9 2.6 2.6c.9.9 2.4.9 3.2 0l17.6-17.6 2.5-2.5c2-2-1.1-5.3-3.2-3.2-6 5.8-11.8 11.7-17.7 17.5l-.9.9-16.1-16.1-2.6-2.6c-2-2-5.3 1.1-3.2 3.2 5.9 6 11.9 11.8 17.8 17.8z" fill="#6f6f6f" opacity="1" data-original="#000000"/></g></svg>