<svg xmlns="http://www.w3.org/2000/svg" version="1.1" xmlns:xlink="http://www.w3.org/1999/xlink" width="512" height="512" x="0" y="0" viewBox="0 0 512 512" style="enable-background:new 0 0 512 512" xml:space="preserve" class=""><g><path d="M420 482H92c-33.791 0-62-28.209-62-62v-44h12v44c0 27.248 22.753 50 50 50h328c27.253 0 50-22.747 50-50V92c0-27.259-22.742-50-50-50h-52V30h52c33.791 0 62 28.209 62 62v328c0 33.791-28.209 62-62 62zM42 368H30v-12h12zm0-20H30V92c0-33.791 28.209-62 62-62h268v12H92c-27.253 0-50 22.746-50 50z" fill="#000000" opacity="1" data-original="#000000" class=""></path><path d="M343.338 386.155c-3.478 0-7.255-1.469-11.284-4.394q-28.2-20.471-56.375-40.971l-4.056-2.949c-6.176-4.49-6.655-4.47-12.814.618-11.179 9.239-21.164 17.388-30.528 24.914-2.135 1.717-8.635 6.942-15.5 4.845-6.844-2.088-9.3-9.979-10.1-12.572q-2.837-9.122-5.687-18.238c-5.641-18.07-11.475-36.754-17.036-55.2-.657-2.183-1.277-2.7-3.068-3.347-13.893-5.023-27.965-10.237-41.574-15.279q-7.3-2.7-14.592-5.4c-3.564-1.316-8.948-3.307-12.565-8.373a6.006 6.006 0 0 1-1.116-3.485c0-8.683 3.424-13.7 11.448-16.787 94.275-36.247 179.293-68.95 265.077-102.1 11.4-4.409 17.507 1.168 20.618 6.624a6.008 6.008 0 0 1 .787 2.971c0 3.266-47.837 232.9-48.32 235.222-1.446 6.935-4.5 11.347-9.069 13.114a11.662 11.662 0 0 1-4.246.787zm-78.008-63.629c4.075 0 8.223 1.882 13.35 5.61l4.056 2.949q28.179 20.49 56.368 40.965c2.464 1.789 3.758 2.053 4.134 2.09.255-.28 1.036-1.347 1.658-4.332 14.746-70.755 43.981-212.055 47.734-231.437-.812-.754-1.975-.81-4.744.26-85.793 33.152-170.817 65.855-265.1 102.1-2.554.981-3.393 1.549-3.649 3.386a20.319 20.319 0 0 0 5.735 2.8q7.3 2.7 14.6 5.405c13.586 5.034 27.636 10.239 41.484 15.245a15.873 15.873 0 0 1 10.479 11.171c5.542 18.389 11.368 37.044 17 55.086q2.85 9.123 5.692 18.25c.976 3.142 1.844 4.267 2.167 4.6.461-.1 1.836-.551 4.465-2.664 9.319-7.491 19.263-15.607 30.4-24.811 5.415-4.46 9.751-6.673 14.171-6.673zm-48.4 11.524h-.162c-7.089-.095-8.856-6.292-9.521-8.625q-2.407-8.44-4.875-16.864c-2.835-9.742-5.767-19.816-8.493-29.792-1.757-6.431-1.565-15.509 9.327-22.244 36.645-22.664 127.246-78.381 128.423-79.007a6.015 6.015 0 0 1 2.24-.675c4.728-.453 7.622 2.073 8.765 4.591a9.14 9.14 0 0 1-2.486 10.3c-5.673 5.345-74.853 69.717-103.668 96.333-4.475 4.134-6.664 8.51-7.1 14.187-.5 6.522-1.5 13-2.481 19.256l-.455 2.951c-1.138 7.897-5.764 9.589-9.511 9.589zm88.6-126.461c-28.739 17.661-70.28 43.227-96.011 59.14-4.666 2.886-5.028 5.346-4.063 8.876 2.7 9.881 5.617 19.906 8.438 29.6l2.2 7.569c.552-3.821 1.038-7.665 1.325-11.438a32.287 32.287 0 0 1 10.919-22.092c18.321-16.918 52.956-49.101 77.194-71.655z" fill="#000000" opacity="1" data-original="#000000" class=""></path></g></svg>