<?xml version="1.0" encoding="UTF-8" standalone="no"?>
<!-- Created with Inkscape (http://www.inkscape.org/) -->

<svg
   width="512"
   height="256"
   viewBox="0 0 135.46666 67.733335"
   version="1.1"
   id="svg1"
   xmlns="http://www.w3.org/2000/svg"
   xmlns:svg="http://www.w3.org/2000/svg">
  <defs
     id="defs1" />
  <g
     id="layer1">
    <g
       transform="matrix(0.01779457,0.00635108,0.00635108,-0.01779457,-6.6293846,82.985709)"
       fill="#000000"
       stroke="none"
       id="g33">
      <path
         d="m 5600,6281 c -8,-5 -145,-54 -305,-109 -159,-55 -549,-191 -865,-302 -316,-111 -748,-262 -960,-336 -844,-294 -830,-289 -830,-314 0,-55 393,-353 618,-468 56,-29 102,-55 102,-57 0,-43 100,-450 167,-675 25,-85 48,-165 50,-177 3,-13 11,-23 18,-23 35,0 317,244 395,342 l 38,47 163,-110 c 90,-61 213,-150 274,-198 180,-143 172,-139 194,-116 11,12 34,81 55,165 157,615 380,1226 650,1785 107,221 238,468 263,497 27,30 6,68 -27,49 z m -113,-84 c -9,-7 -189,-131 -400,-276 -730,-504 -864,-596 -1247,-859 -212,-146 -405,-280 -429,-299 l -44,-33 -36,21 c -282,165 -398,245 -570,391 -71,61 -81,73 -65,79 26,9 474,167 1224,431 1102,387 1383,487 1475,522 95,36 122,43 92,23 z m -87,-309 c -328,-651 -572,-1312 -730,-1978 -13,-52 -24,-97 -26,-99 -2,-2 -23,14 -46,35 -57,53 -261,200 -488,352 -207,140 -279,192 -379,278 l -69,58 28,18 c 16,9 75,59 133,110 57,51 168,149 248,218 79,69 369,321 644,560 276,240 556,483 624,540 69,58 138,117 155,132 17,15 32,27 32,28 1,0 -56,-114 -126,-252 z m -15,184 c -11,-11 -108,-95 -215,-188 -107,-94 -489,-426 -848,-739 -359,-314 -665,-578 -680,-587 -36,-24 -39,-45 -48,-346 -4,-139 -9,-250 -11,-248 -10,10 -193,700 -193,728 0,9 45,46 103,85 56,37 255,174 442,304 187,129 581,401 875,604 294,203 546,377 559,387 31,23 41,23 16,0 z m -1458,-1795 75,-52 -144,-141 c -79,-77 -166,-155 -193,-174 l -48,-33 6,69 c 4,38 10,178 13,310 l 7,242 104,-84 c 58,-46 138,-108 180,-137 z"
         id="path1" />
      <path
         d="m 1815,3990 c -3,-6 0,-12 7,-15 111,-38 118,-40 118,-24 0,20 -114,56 -125,39 z"
         id="path2" />
      <path
         d="m 3327,3956 c -40,-49 -43,-56 -24,-56 12,0 87,82 87,94 0,19 -31,0 -63,-38 z"
         id="path3" />
      <path
         d="m 1656,3964 c -30,-16 -45,-29 -39,-35 12,-12 126,38 118,52 -9,14 -26,10 -79,-17 z"
         id="path4" />
      <path
         d="m 1997,3894 c -7,-7 61,-104 74,-104 17,0 9,21 -23,66 -31,44 -39,50 -51,38 z"
         id="path5" />
      <path
         d="m 1510,3823 c -33,-52 -36,-63 -17,-63 12,1 67,83 67,101 0,22 -23,5 -50,-38 z"
         id="path6" />
      <path
         d="m 3187,3812 c -35,-35 -47,-62 -29,-62 14,0 93,86 86,93 -12,12 -19,8 -57,-31 z"
         id="path7" />
      <path
         d="m 2100,3711 c 0,-7 15,-55 35,-110 4,-10 9,-11 16,-4 14,14 -20,123 -38,123 -7,0 -13,-4 -13,-9 z"
         id="path8" />
      <path
         d="m 3033,3664 c -42,-35 -53,-54 -32,-54 16,0 99,72 93,82 -8,13 -17,9 -61,-28 z"
         id="path9" />
      <path
         d="m 1460,3628 c 0,-56 11,-85 28,-74 6,4 7,20 2,43 -5,21 -8,47 -7,57 1,10 -4,21 -10,23 -10,3 -13,-10 -13,-49 z"
         id="path10" />
      <path
         d="m 2868,3532 c -30,-23 -44,-40 -38,-46 12,-12 94,45 98,68 5,23 -7,19 -60,-22 z"
         id="path11" />
      <path
         d="m 2158,3513 c -8,-19 -2,-123 7,-123 6,0 11,29 13,65 2,38 -1,65 -7,65 -5,0 -11,-3 -13,-7 z"
         id="path12" />
      <path
         d="m 1510,3467 c 0,-23 72,-99 83,-88 6,6 -3,25 -28,55 -38,47 -55,57 -55,33 z"
         id="path13" />
      <path
         d="m 2693,3412 c -40,-25 -61,-61 -29,-49 30,12 96,58 96,67 0,16 -22,10 -67,-18 z"
         id="path14" />
      <path
         d="m 2513,3314 c -48,-21 -69,-44 -42,-44 24,0 109,44 109,56 0,18 -5,17 -67,-12 z"
         id="path15" />
      <path
         d="m 1660,3320 c 0,-10 81,-60 98,-60 25,0 10,19 -32,44 -47,27 -66,32 -66,16 z"
         id="path16" />
      <path
         d="m 2130,3261 c -11,-46 -14,-50 -43,-53 -18,-2 -31,-7 -30,-13 3,-12 67,-19 100,-11 26,7 32,26 8,26 -13,0 -15,9 -9,50 9,66 -10,66 -26,1 z"
         id="path17" />
      <path
         d="m 2312,3242 c -52,-15 -68,-40 -21,-33 43,6 94,26 92,36 -2,14 -13,14 -71,-3 z"
         id="path18" />
      <path
         d="m 1852,3229 c 6,-17 109,-42 122,-29 11,11 -21,24 -83,35 -34,6 -42,4 -39,-6 z"
         id="path19" />
      <path
         d="m 2056,3054 c -30,-66 -30,-64 -13,-64 14,0 57,80 57,105 0,31 -20,13 -44,-41 z"
         id="path20" />
      <path
         d="m 1964,2871 c -28,-53 -31,-64 -16,-69 9,-3 62,88 62,107 0,25 -20,8 -46,-38 z"
         id="path21" />
      <path
         d="m 1850,2690 c -42,-66 -28,-87 16,-24 33,47 43,74 25,74 -5,0 -23,-22 -41,-50 z"
         id="path22" />
      <path
         d="m 1726,2523 c -37,-47 -43,-63 -27,-63 11,0 81,79 81,91 0,24 -22,13 -54,-28 z"
         id="path23" />
      <path
         d="m 1591,2364 c -67,-76 -52,-91 19,-19 31,32 41,48 33,56 -7,7 -22,-4 -52,-37 z"
         id="path24" />
      <path
         d="m 1441,2206 c -29,-29 -39,-46 -31,-51 13,-8 90,61 90,82 0,22 -14,15 -59,-31 z"
         id="path25" />
      <path
         d="m 1287,2062 c -39,-40 -45,-52 -24,-52 13,0 87,70 87,83 0,18 -29,4 -63,-31 z"
         id="path26" />
      <path
         d="m 1136,1933 c -25,-19 -46,-42 -46,-49 0,-22 13,-17 65,29 61,54 46,71 -19,20 z"
         id="path27" />
      <path
         d="m 967,1804 c -44,-32 -59,-54 -37,-54 13,0 100,62 100,71 0,20 -19,15 -63,-17 z"
         id="path28" />
      <path
         d="m 787,1678 c -32,-20 -45,-34 -38,-41 10,-10 111,47 111,64 0,17 -25,9 -73,-23 z"
         id="path29" />
      <path
         d="m 612,1569 c -35,-21 -50,-35 -44,-41 12,-12 112,41 112,60 0,18 -9,15 -68,-19 z"
         id="path30" />
      <path
         d="m 433,1468 c -49,-27 -68,-48 -43,-48 18,0 110,50 110,60 0,19 -16,16 -67,-12 z"
         id="path31" />
      <path
         d="m 245,1373 c -60,-31 -59,-29 -50,-42 4,-7 28,0 66,19 33,17 57,35 54,40 -8,14 -13,13 -70,-17 z"
         id="path32" />
      <path
         d="m 51,1284 c -36,-16 -51,-28 -45,-34 14,-14 114,28 114,46 0,18 -5,17 -69,-12 z"
         id="path33" />
    </g>
  </g>
</svg>
